# Blender v2.91.2 OBJ File: 'boyband_poster.blend'
# www.blender.org
o Cube
v -0.006455 -0.732632 -0.679532
v -0.006455 -0.732632 0.679532
v 0.006455 -0.732632 -0.679532
v 0.006455 -0.732632 0.679532
v -0.006455 0.080411 -0.679532
v -0.006455 0.062090 0.679532
v -0.006455 0.158523 -0.611589
v -0.006455 -0.079157 -0.452717
v -0.006455 0.047582 -0.324537
v -0.006455 -0.108740 -0.264256
v -0.006455 0.064015 -0.134827
v -0.006455 -0.147673 0.012867
v -0.006455 0.060366 -0.009111
v -0.006455 -0.130970 0.207559
v -0.006455 0.073137 0.183951
v -0.006455 -0.077314 0.322564
v -0.006455 0.060366 0.448276
v -0.006455 -0.097635 0.566789
v 0.006455 0.080411 -0.679532
v 0.006455 0.062090 0.679532
v 0.006455 0.158523 -0.611589
v 0.006455 -0.079157 -0.452717
v 0.006455 0.047582 -0.324537
v 0.006455 -0.108740 -0.264256
v 0.006455 0.064015 -0.134827
v 0.006455 -0.147673 0.012867
v 0.006455 0.060366 -0.009111
v 0.006455 -0.130970 0.207559
v 0.006455 0.073137 0.183951
v 0.006455 -0.077314 0.322564
v 0.006455 0.060366 0.448276
v 0.006455 -0.097635 0.566789
vt 0.056806 0.422680
vt 0.264007 0.632773
vt 0.181078 0.646756
vt 0.879567 0.363927
vt 0.888756 0.500001
vt 0.879567 0.363927
vt 0.056806 0.422680
vt 0.181078 0.646756
vt 0.264007 0.632773
vt 0.871877 0.749968
vt 0.888756 0.500001
vt 0.871877 0.749968
vt 0.394299 0.261967
vt 0.376369 0.305388
vt 0.394299 0.261967
vt 0.371787 0.253755
vt 0.388655 0.241732
vt 0.371787 0.253755
vt 0.366910 0.231756
vt 0.388655 0.241732
vt 0.366297 0.215448
vt 0.394436 0.231518
vt 0.394436 0.231518
vt 0.366910 0.231756
vt 0.394329 0.215031
vt 0.366297 0.215448
vt 0.364300 0.204958
vt 0.394329 0.215031
vt 0.385805 0.192243
vt 0.364300 0.204958
vt 0.364216 0.188891
vt 0.385805 0.192243
vt 0.379594 0.176780
vt 0.364216 0.188891
vt 0.345962 0.166053
vt 0.379594 0.176780
vt 0.375578 0.065477
vt 0.345962 0.166053
vt 0.880857 0.882977
vt 0.463507 0.422680
vt 0.463507 0.708111
vt 0.429769 0.650745
vt 0.394304 0.707492
vt 0.356684 0.658043
vt 0.315204 0.712079
vt 0.322269 0.638772
vt 0.257430 0.707492
vt 0.219810 0.708802
vt 0.163039 0.702900
vt 0.124680 0.657381
vt 0.077138 0.742746
vt 0.056806 0.714691
vt 0.056806 0.714691
vt 0.124680 0.657381
vt 0.077138 0.742746
vt 0.163039 0.702900
vt 0.429769 0.650745
vt 0.463507 0.708111
vt 0.463507 0.422680
vt 0.356684 0.658043
vt 0.394304 0.707492
vt 0.322269 0.638772
vt 0.315204 0.712079
vt 0.257430 0.707492
vt 0.219810 0.708802
vt 0.374333 0.273142
vt 0.355573 0.159515
vt 0.880857 0.882977
vn -1.0000 0.0000 0.0000
vn 0.0000 0.0000 1.0000
vn 1.0000 0.0000 0.0000
vn 0.0000 1.0000 0.0000
vn 0.0000 -0.5767 0.8170
vn 0.0000 -0.6000 -0.8000
vn 0.0000 -0.6743 0.7385
vn 0.0000 -0.6776 -0.7354
vn 0.0000 -0.7496 -0.6619
vn 0.0000 0.1149 0.9934
vn 0.0000 0.1051 0.9945
vn 0.0000 -0.5722 -0.8201
vn 0.0000 -0.5996 0.8003
vn 0.0000 -0.3598 -0.9330
vn 0.0000 -0.7111 0.7031
vn 0.0000 -0.5557 -0.8314
vn 0.0000 -0.6563 0.7545
vn 0.0000 0.0000 -1.0000
s off
f 3/1/1 26/2/1 24/3/1
f 5/4/2 3/5/2 19/6/2
f 1/7/3 10/8/3 12/9/3
f 4/10/4 1/11/4 2/12/4
f 32/13/5 6/14/5 18/15/5
f 17/16/6 32/13/6 18/15/6
f 16/17/7 31/18/7 17/16/7
f 15/19/8 30/20/8 16/17/8
f 13/21/9 28/22/9 14/23/9
f 14/23/10 29/24/10 15/19/10
f 12/25/11 27/26/11 13/21/11
f 11/27/12 26/28/12 12/25/12
f 10/29/13 25/30/13 11/27/13
f 9/31/14 24/32/14 10/29/14
f 8/33/15 23/34/15 9/31/15
f 7/35/16 22/36/16 8/33/16
f 5/37/17 21/38/17 7/35/17
f 2/12/18 20/39/18 4/10/18
f 4/40/1 20/41/1 32/42/1
f 32/42/1 31/43/1 30/44/1
f 30/44/1 29/45/1 28/46/1
f 28/46/1 27/47/1 26/2/1
f 26/2/1 25/48/1 24/3/1
f 24/3/1 23/49/1 22/50/1
f 22/50/1 21/51/1 19/52/1
f 3/1/1 4/40/1 26/2/1
f 4/40/1 32/42/1 28/46/1
f 32/42/1 30/44/1 28/46/1
f 4/40/1 28/46/1 26/2/1
f 22/50/1 19/52/1 3/1/1
f 24/3/1 22/50/1 3/1/1
f 5/4/2 1/11/2 3/5/2
f 1/7/3 5/53/3 8/54/3
f 5/53/3 7/55/3 8/54/3
f 8/54/3 9/56/3 10/8/3
f 18/57/3 6/58/3 2/59/3
f 16/60/3 17/61/3 18/57/3
f 14/62/3 15/63/3 16/60/3
f 12/9/3 13/64/3 14/62/3
f 10/8/3 11/65/3 12/9/3
f 1/7/3 8/54/3 10/8/3
f 18/57/3 2/59/3 14/62/3
f 2/59/3 1/7/3 12/9/3
f 14/62/3 2/59/3 12/9/3
f 14/62/3 16/60/3 18/57/3
f 4/10/4 3/5/4 1/11/4
f 32/13/5 20/66/5 6/14/5
f 17/16/6 31/18/6 32/13/6
f 16/17/7 30/20/7 31/18/7
f 15/19/8 29/24/8 30/20/8
f 13/21/9 27/26/9 28/22/9
f 14/23/10 28/22/10 29/24/10
f 12/25/11 26/28/11 27/26/11
f 11/27/12 25/30/12 26/28/12
f 10/29/13 24/32/13 25/30/13
f 9/31/14 23/34/14 24/32/14
f 8/33/15 22/36/15 23/34/15
f 7/35/16 21/38/16 22/36/16
f 5/37/17 19/67/17 21/38/17
f 2/12/18 6/68/18 20/39/18
o Cube.001
v -0.006455 0.759400 -0.679532
v -0.006455 0.759400 0.679532
v 0.006455 0.759400 -0.679532
v 0.006455 0.759400 0.679532
v -0.006455 0.078972 -0.679532
v -0.006455 0.060650 0.679532
v -0.006455 0.157083 -0.611589
v -0.006455 -0.080597 -0.452717
v -0.006455 0.046143 -0.324537
v -0.006455 -0.110179 -0.264256
v -0.006455 0.062576 -0.134827
v -0.006455 -0.149112 0.012867
v -0.006455 0.058926 -0.009111
v -0.006455 -0.132410 0.207559
v -0.006455 0.071697 0.183951
v -0.006455 -0.078753 0.322564
v -0.006455 0.058926 0.448276
v -0.006455 -0.099074 0.566789
v 0.006455 0.078972 -0.679532
v 0.006455 0.060650 0.679532
v 0.006455 0.157083 -0.611589
v 0.006455 -0.080597 -0.452717
v 0.006455 0.046143 -0.324537
v 0.006455 -0.110179 -0.264256
v 0.006455 0.062576 -0.134827
v 0.006455 -0.149112 0.012867
v 0.006455 0.058926 -0.009111
v 0.006455 -0.132410 0.207559
v 0.006455 0.071697 0.183951
v 0.006455 -0.078753 0.322564
v 0.006455 0.058926 0.448276
v 0.006455 -0.099074 0.566789
vt 0.888753 0.999923
vt 0.880857 0.882977
vt 0.880857 0.882977
vt 0.000000 0.000000
vt 0.000000 0.000000
vt 0.000000 0.000000
vt 0.257430 0.707492
vt 0.219810 0.708802
vt 0.056806 0.959072
vt 0.315204 0.712079
vt 0.394304 0.707492
vt 0.463507 0.959072
vt 0.481927 0.557542
vt 0.474375 0.431273
vt 0.481927 0.431273
vt 0.871877 0.250047
vt 0.888738 0.000080
vt 0.871877 0.250047
vt 0.481927 0.830900
vt 0.474375 0.708531
vt 0.481927 0.708531
vt 0.474375 0.557542
vt 0.481957 0.228742
vt 0.489509 0.344278
vt 0.481957 0.344278
vt 0.879567 0.363927
vt 0.879567 0.363927
vt 0.474375 0.830900
vt 0.481928 0.999985
vt 0.474376 0.999985
vt 0.489509 0.228742
vt 0.481957 0.119681
vt 0.489510 0.119681
vt 0.474375 0.333268
vt 0.481927 0.333268
vt 0.474375 0.227824
vt 0.481927 0.227824
vt 0.474375 0.060578
vt 0.481957 0.000015
vt 0.489510 0.458642
vt 0.481928 0.060578
vt 0.474375 0.000015
vt 0.481928 0.000015
vt 0.888753 0.999923
vt 0.000000 0.000000
vt 0.463507 0.959072
vt 0.463507 0.708111
vt 0.394304 0.707492
vt 0.429769 0.650745
vt 0.356684 0.658043
vt 0.315204 0.712079
vt 0.077138 0.742746
vt 0.056806 0.714691
vt 0.163039 0.702900
vt 0.124680 0.657381
vt 0.181078 0.646756
vt 0.264007 0.632773
vt 0.322269 0.638772
vt 0.429769 0.650745
vt 0.463507 0.708111
vt 0.056806 0.959072
vt 0.056806 0.714691
vt 0.077138 0.742746
vt 0.124680 0.657381
vt 0.163039 0.702900
vt 0.181078 0.646756
vt 0.219810 0.708802
vt 0.264007 0.632773
vt 0.257430 0.707492
vt 0.322269 0.638772
vt 0.356684 0.658043
vt 0.888738 0.000080
vt 0.489510 0.000015
vt 0.481957 0.458642
vn 0.0000 0.0000 -1.0000
vn 0.0000 0.5996 -0.8003
vn 1.0000 -0.0000 0.0000
vn -1.0000 -0.0000 0.0000
vn 0.0000 -1.0000 0.0000
vn 0.0000 -0.1051 -0.9945
vn 0.0000 0.5722 0.8201
vn 0.0000 0.6000 0.8000
vn 0.0000 0.0000 1.0000
vn 0.0000 0.7496 0.6619
vn 0.0000 0.6743 -0.7385
vn 0.0000 0.3598 0.9330
vn 0.0000 0.7111 -0.7031
vn 0.0000 0.5557 0.8314
vn 0.0000 0.6776 0.7354
vn 0.0000 0.5767 -0.8170
vn 0.0000 0.6563 -0.7545
s off
f 34/69/19 52/70/19 38/71/19
f 43/72/20 56/73/20 42/74/20
f 45/75/21 43/76/21 33/77/21
f 61/78/22 63/79/22 36/80/22
f 43/81/20 56/82/20 42/83/20
f 35/84/23 34/85/23 33/86/23
f 45/87/24 58/88/24 44/89/24
f 57/90/25 44/89/25 58/88/25
f 63/91/26 50/92/26 64/93/26
f 51/94/27 33/86/27 37/95/27
f 59/96/28 46/97/28 60/98/28
f 49/99/29 62/100/29 48/101/29
f 55/102/30 42/83/30 56/82/30
f 41/103/31 54/104/31 40/105/31
f 53/106/32 40/105/32 54/104/32
f 61/107/33 48/101/33 62/100/33
f 38/108/34 64/93/34 50/92/34
f 39/109/35 51/110/35 37/111/35
f 34/69/19 36/112/19 52/70/19
f 43/72/20 57/113/20 56/73/20
f 34/114/21 38/115/21 49/116/21
f 38/115/21 50/117/21 49/116/21
f 49/116/21 48/118/21 47/119/21
f 39/120/21 37/121/21 33/77/21
f 41/122/21 40/123/21 39/120/21
f 43/76/21 42/124/21 41/122/21
f 45/75/21 44/125/21 43/76/21
f 47/119/21 46/126/21 45/75/21
f 34/114/21 49/116/21 47/119/21
f 39/120/21 33/77/21 41/122/21
f 33/77/21 34/114/21 45/75/21
f 45/75/21 34/114/21 47/119/21
f 43/76/21 41/122/21 33/77/21
f 64/127/22 52/128/22 63/79/22
f 52/128/22 36/80/22 63/79/22
f 35/129/22 51/130/22 53/131/22
f 53/131/22 54/132/22 55/133/22
f 55/133/22 56/134/22 57/135/22
f 57/135/22 58/136/22 59/137/22
f 59/137/22 60/138/22 61/78/22
f 61/78/22 62/139/22 63/79/22
f 36/80/22 35/129/22 59/137/22
f 35/129/22 53/131/22 55/133/22
f 57/135/22 35/129/22 55/133/22
f 57/135/22 59/137/22 35/129/22
f 59/137/22 61/78/22 36/80/22
f 43/81/20 57/90/20 56/82/20
f 35/84/23 36/140/23 34/85/23
f 45/87/24 59/96/24 58/88/24
f 57/90/25 43/81/25 44/89/25
f 63/91/26 49/99/26 50/92/26
f 51/94/27 35/84/27 33/86/27
f 59/96/28 45/87/28 46/97/28
f 49/99/29 63/91/29 62/100/29
f 55/102/30 41/103/30 42/83/30
f 41/103/31 55/102/31 54/104/31
f 53/106/32 39/109/32 40/105/32
f 61/107/33 47/141/33 48/101/33
f 38/108/34 52/142/34 64/93/34
f 39/109/35 53/106/35 51/110/35
